# xmcd
#
# Track frame offsets:
#	150
#	11470
#	23027
#	41972
#	52975
#	62605
#	75947
#	92300
#	105855
#	118800
#	131317
#	144425
#	161077
#	174132
#	193777
#	202495
#
# Disc length: 2824 seconds
# Revision: 7
# Processed by: cddbd v1.5.2PL0 Copyright (c) Steve Scherf et al.
# Submitted via: dBpowerAMP V12.0
#
DISCID=c60b0610
DTITLE=Elvis Presley - The Country Collection, Disc 2 of 2
DYEAR=2001
DGENRE=Country
TTITLE0=I Forgot to Remember to Forget
TTITLE1=Have I Told You Lately That I Love You
TTITLE2=Old Shep
TTITLE3=Your Cheatin' Heart
TTITLE4=Just Call Me Lonesome
TTITLE5=Early Morning Rain
TTITLE6=Green, Green Grass of Home
TTITLE7=There Goes My Everything
TTITLE8=Moody Blue
TTITLE9=I Really Don't Want to Know
TTITLE10=I'm Movin' On
TTITLE11=Blue Eyes Crying in the Rain
TTITLE12=Take Good Care of Her
TTITLE13=Funny How Time Slips Away
TTITLE14=Welcome to My World
TTITLE15=Snowbird
EXTD=
EXTT0=
EXTT1=
EXTT2=
EXTT3=
EXTT4=
EXTT5=
EXTT6=
EXTT7=
EXTT8=
EXTT9=
EXTT10=
EXTT11=
EXTT12=
EXTT13=
EXTT14=
EXTT15=
PLAYORDER=
